<svg width="504" height="262" viewBox="0 0 504 262" fill="none" xmlns="http://www.w3.org/2000/svg">
<g opacity="0.998">
<g opacity="0.998">
<path d="M235.348 60.9324C235.932 53.6392 233.978 59.1215 235.932 53.6392C233.547 50.985 238.075 46.833 239.142 43.4287C241.092 37.2067 241.417 30.2205 244.978 24.758C250.307 16.5843 257.062 10.9575 268.907 6.08735C278.285 2.23196 288.922 0.0270585 298.965 1.41968C306.596 2.47786 314.393 4.99046 319.976 11.0467C332.052 24.1471 334.269 38.6936 332.524 55.0978C331.454 65.159 331.089 74.84 325.229 82.087C322.891 84.9783 318.192 84.8426 315.307 87.188C313.268 88.8455 311.623 91.0177 310.346 93.3143C307.393 98.627 307.768 105.503 304.368 110.541C300.07 116.909 293.815 122.147 287 125.696C276.246 131.298 262.941 138.97 251.69 134.448C249.662 133.633 248.596 131.052 248.188 128.905C247.725 126.469 250.129 124.015 249.577 121.597C249.296 120.369 247.902 119.508 247.327 118.559C242.288 110.241 248.374 98.6971 246.729 87.4798C246.229 84.0672 237.907 87.0405 237.099 83.6873C235.298 76.2087 234.263 68.3254 235.348 60.9324V60.9324Z" stroke="#E7D69B" stroke-width="1.5" stroke-linecap="round"/>
<path d="M291.657 56.7882C291.657 56.7882 287.858 65.2094 290.394 66.619C292.235 67.6424 293.054 69.2721 293.839 75.1155C294.082 76.9222 293.842 79.152 294.767 81.5422C295.516 83.481 303.377 82.6296 307.339 82.1464C310.673 81.7399 313.117 75.3537 313.117 75.3537" stroke="#E7D69B" stroke-width="1.5" stroke-linecap="round"/>
<path d="M245.904 106.978L248.384 107.269L248.238 112.083L245.393 111.937L245.904 106.978Z" stroke="#E7D69B" stroke-width="1.5" stroke-linecap="round"/>
<path d="M283.403 108.072C282.995 106.736 281.068 105.732 280.604 105.881C278.636 106.512 277.824 107.714 278.15 107.197C278.58 106.514 277.589 106.136 276.837 106.103C274.555 106.002 275.151 107.508 275.013 107.853C274.991 107.906 275.898 106.727 272.97 106.613C271.386 106.552 271.048 109.413 271.438 108.728C272.19 107.407 271.484 106.525 269.614 106.686C267.765 106.845 267.763 108.672 268.009 108.436C268.241 108.214 268.248 107.548 266.331 107.269C264.913 107.064 264.582 108.703 264.653 109.239C264.753 109.992 265.574 107.335 262.975 106.832C261.079 106.465 259.175 108.267 260.057 109.385C260.629 110.109 260.377 107.576 257.868 107.415C255.558 107.268 255.869 108.888 255.899 109.239C255.964 110.012 256.272 107.818 253.929 107.561C251.814 107.329 251.421 110.182 251.521 109.603C251.582 109.252 252.014 108.084 250.135 107.561C248.444 107.091 248.202 108.859 248.457 109.02L248.238 112.083C247.91 112.411 248.08 114.225 249.406 113.906C250.066 113.748 251.289 114.826 251.156 113.177C251.125 112.787 250.593 114.502 252.834 114.709C254.168 114.831 257.044 112.132 255.971 112.739C253.948 113.886 255.538 114.532 258.16 114.49C259.201 114.474 261.256 112.777 260.568 113.323C258.733 114.779 260.64 113.664 262.756 113.906C263.473 113.989 265.166 112.918 264.58 113.177C263.895 113.48 262.956 113.847 266.112 113.76C266.292 113.754 266.715 113.804 267.167 113.526C267.504 113.32 269.21 112.284 268.52 112.666C266.381 113.852 269.188 113.972 270.271 113.688C271.052 113.482 272.744 112.084 271.949 111.937C270.812 111.728 273.428 112.63 275.232 111.646C275.446 111.529 275.232 111.149 275.159 110.916C275.097 110.721 274.865 112.1 276.91 111.573C277.564 111.404 279.275 110.271 278.66 110.552C275.646 111.929 278.189 111.737 280.047 111.062C280.823 110.78 281.618 110.058 281.725 109.239C281.792 108.721 280.485 107.966 280.995 107.853C281.274 107.791 281.826 109.731 282.819 109.166C283.178 108.962 283.523 108.467 283.403 108.072V108.072Z" stroke="#E7D69B" stroke-width="1.5" stroke-linecap="round"/>
<path d="M278.09 107.276L278.554 110.525" stroke="#E7D69B" stroke-width="1.5" stroke-linecap="round"/>
<path d="M275.098 107.947L275.149 110.835" stroke="#E7D69B" stroke-width="1.5" stroke-linecap="round"/>
<path d="M271.28 108.669L271.641 111.969" stroke="#E7D69B" stroke-width="1.5" stroke-linecap="round"/>
<path d="M268.082 108.411L268.598 112.485" stroke="#E7D69B" stroke-width="1.5" stroke-linecap="round"/>
<path d="M264.677 109.133L264.574 113.104" stroke="#E7D69B" stroke-width="1.5" stroke-linecap="round"/>
<path d="M260.24 109.133L260.498 113.31" stroke="#E7D69B" stroke-width="1.5" stroke-linecap="round"/>
<path d="M255.907 109.339L255.959 112.794" stroke="#E7D69B" stroke-width="1.5" stroke-linecap="round"/>
<path d="M251.574 109.7L251.161 113.413" stroke="#E7D69B" stroke-width="1.5" stroke-linecap="round"/>
<path d="M284.022 113.413C284.022 113.413 282.847 114.225 282.165 114.341C280.3 114.66 280.865 110.778 281.083 110.632C281.083 110.632 281.146 114.166 280.102 114.341C279.586 114.428 278.261 114.858 277.73 114.392C277.108 113.845 277.243 111.652 277.243 111.652C277.537 111.59 278.17 114.868 275.665 115.27C275.216 115.342 274.077 115.67 273.693 115.183C273.041 114.356 273.262 112.484 273.262 112.484C273.262 112.484 273.99 114.142 273.433 115.213C273.233 115.599 272.135 116.004 271.803 116.094C271.385 116.207 270.009 116.358 269.573 115.951C268.989 115.405 269.396 113.979 269.396 113.979C269.67 113.827 269.744 117.06 266.988 117.772C266.535 117.889 265.635 118.067 265.329 117.487C264.855 116.591 265.201 114.016 265.201 114.016C265.201 114.016 265.741 116.486 265.162 117.607C264.806 118.297 263.394 118.593 262.83 118.574C262.412 118.558 261.79 118.887 261.534 118.398C260.993 117.361 261.079 114.015 261.079 114.015C261.079 114.015 261.84 117.319 261.335 118.375C261.114 118.838 259.942 118.63 259.547 118.647C259.158 118.662 258.22 118.893 257.968 118.45C257.417 117.481 257.723 114.599 257.723 114.599C257.723 114.599 258.279 117.61 257.756 118.531C257.528 118.933 256.547 118.522 256.191 118.5C255.817 118.478 255.257 118.738 255.066 118.294C254.619 117.261 254.951 114.014 254.951 114.014C254.951 114.014 255.463 117.4 254.861 118.283C254.575 118.701 253.288 118.042 252.908 117.989C252.024 117.866 252.142 114.671 252.142 114.671C252.142 114.671 252.358 117.199 251.852 117.768C251.562 118.094 250.582 117.44 250.281 117.333C249.409 117.021 250.136 114.16 250.136 114.16L250.281 117.333C250.281 117.333 249.119 117.562 248.676 117.26C247.687 116.585 247.217 113.978 247.217 113.978L246.867 112.161" stroke="#E7D69B" stroke-width="1.5" stroke-linecap="round"/>
<path d="M263.413 72.0431C261.903 69.8698 263.962 66.0398 266.185 64.6041C270.444 61.8543 276.613 63.8467 281.36 65.6251C284.22 66.6966 287.298 68.4325 288.655 71.168C289.542 79.3488 288.44 78.9649 287.926 80.2116C285.844 80.6479 286.23 82.4303 285.008 82.983C281.048 84.7733 276.173 85.4374 272.022 84.1499C268.524 83.0652 265.165 80.4381 263.559 77.1484C262.812 75.6184 263.413 72.0431 263.413 72.0431V72.0431Z" stroke="#E7D69B" stroke-width="1.5" stroke-linecap="round"/>
<path d="M240.505 58.4777C244.19 58.9251 247.673 61.4126 249.99 64.3123C251.4 66.0785 252.701 68.5313 252.178 70.7304C251.359 74.1758 248.123 78.4424 244.591 78.1695C241.022 77.8935 239.508 72.883 238.171 69.5635C236.923 66.4662 235.127 62.4392 236.923 59.6246C237.598 58.5681 239.261 58.3266 240.505 58.4777V58.4777Z" stroke="#E7D69B" stroke-width="1.5" stroke-linecap="round"/>
<path d="M253.689 80.9234C257.434 83.2482 261.474 88.2891 261.117 91.8564C260.955 93.4828 260.748 95.7159 259.26 96.3947C257.763 97.078 255.859 92.9232 251.832 93.3004C250.749 93.4018 249.525 95.081 248.736 94.3318C248.33 88.4213 246.223 75.9171 253.689 80.9234Z" stroke="#E7D69B" stroke-width="1.5" stroke-linecap="round"/>
<path d="M311.466 91.2376C311.466 91.2376 311.697 85.632 312.911 83.1925C313.453 82.1033 315.387 80.5108 315.387 80.5108C315.387 80.5108 308.869 83.7858 305.895 85.8742C302.183 88.4807 299.542 92.5401 295.578 94.7444C292.175 96.6367 288.329 98.2559 284.435 98.2512C279.888 98.245 275.791 92.8235 271.435 94.1256C270.076 94.5316 268.752 97.4261 268.752 97.4261" stroke="#E7D69B" stroke-width="1.5" stroke-linecap="round"/>
<path d="M288.768 97.8387L288.974 106.915L289.593 110.628L286.292 117.229L284.022 113.413L283.402 108.072L284.641 98.0449" stroke="#E7D69B" stroke-width="1.5" stroke-linecap="round"/>
<path d="M298.83 1.41074C298.83 1.41074 282.168 1.8233 277.628 7.18668C273.089 12.55 264.835 22.0391 264.835 22.0391" stroke="#E7D69B" stroke-width="1.5" stroke-linecap="round"/>
<path opacity="0.998" d="M264.872 63.1454C269.105 69.4615 260.986 74.6434 262.246 80.9409C263.743 88.4234 275.785 83.4839 268.957 78.0236C267.671 76.9944 269.759 90.2886 287.342 87.359C299.405 85.3491 271.349 61.395 282.089 61.395C285.679 61.395 289.314 75.3625 264.872 63.1454Z" stroke="#E7D69B" stroke-width="1.5"/>
<path opacity="0.998" d="M240.505 58.4778C263.679 65.576 237.735 75.1043 246.196 66.6461C257.165 55.6806 244.387 92.3496 239.192 68.98C238.181 64.4312 238.908 61.6711 240.505 58.4778V58.4778Z" stroke="#E7D69B" stroke-width="1.5"/>
<path d="M288.768 97.8387C291.881 109.011 282.911 99.7785 287.53 100.933C297.841 103.51 281.387 120.135 285.26 119.705C287.407 119.466 289.462 117.699 290.419 115.785C291.655 113.314 284.711 113.244 283.816 111.453C278.7 101.226 289.868 87.831 268.752 97.4261" stroke="#E7D69B" stroke-width="1.5" stroke-linecap="round"/>
<path d="M253.689 80.9234C244.848 95.8211 261.27 99.9415 259.57 91.4439C259 88.5982 256.202 90.317 256.165 90.2062C255.159 87.1893 254.454 84.1363 253.689 80.9234V80.9234Z" stroke="#E7D69B" stroke-width="1.5" stroke-linecap="round"/>
<path d="M311.466 91.2376C300.736 173.045 375.891 165.938 427.846 196.236" stroke="#E7D69B" stroke-width="1.5" stroke-linecap="round"/>
<path d="M282.165 127.44C272.873 143.696 271.173 137.724 262.768 156.629" stroke="#E7D69B" stroke-width="1.5" stroke-linecap="round"/>
<path d="M400.609 216.039C407.011 227.992 409.49 232.135 398.958 225.116C385.238 215.972 373.812 207.559 358.514 201.187C323.055 186.417 359.205 247.855 383.275 232.542C409.059 216.139 397.021 143.681 384.101 117.848C383.16 115.967 401.84 169.021 388.228 196.236C381.328 210.032 354.771 175.719 358.514 160.755C367.146 126.236 375.847 129.861 375.847 84.8428C375.847 84.1894 375.407 73.7306 374.196 74.9412C362.449 86.6844 375.051 116.01 372.545 131.875C370.767 143.134 341.528 166.053 355.212 179.733C383.238 207.751 405.559 157.379 431.148 169.007C445.388 175.477 454.959 224.928 461.688 235.017C464.819 239.713 478.845 246.694 473.243 247.394C436.939 251.931 424.812 184.231 398.132 202.012C384.946 210.8 381.189 240.404 371.72 249.87C369.671 251.918 355.637 220.59 352.736 217.689C348.29 213.245 313.706 227.423 307.339 229.241C290.03 234.185 236.159 254.722 219.848 246.569C199.606 236.451 179.934 212.35 157.118 207.788C134.232 203.212 110.755 219.93 96.0393 195.411C90.5117 186.201 163.858 125.755 164.547 126.1C177.952 132.8 200.64 196.083 218.197 143.427C222.161 131.541 135.972 154.865 118.325 156.629C32.0375 165.256 87.1885 155.944 75.4045 191.285C72.4729 200.077 10.2649 182.901 1.11927 201.187C-3.23792 209.898 113.511 192.61 68.8014 225.116" stroke="#E7D69B" stroke-width="1.5" stroke-linecap="round"/>
<path d="M299.086 167.356C270.814 170.158 231.815 162.433 203.34 156.63C192.434 154.407 150.19 135.406 134.833 138.477C71.663 151.107 103.19 206.352 157.118 200.362C195.312 196.119 257.901 161.411 294.133 177.258C360.014 206.072 235.714 257.56 306.514 259.771C323.968 260.317 346.417 262.517 363.466 253.995C371.45 250.005 527.603 176.125 499.656 163.231C484.887 156.417 464.111 149.485 447.656 151.679C420.827 155.255 392.957 183.32 367.593 193.761C312.966 216.247 164.981 263.167 108.42 229.241" stroke="#E7D69B" stroke-width="1.5" stroke-linecap="round"/>
<path d="M48.1665 250.695C158.681 188.166 310.125 232.233 404.735 137.651" stroke="#E7D69B" stroke-width="1.5" stroke-linecap="round"/>
</g>
</g>
</svg>
