<svg width="297" height="297" viewBox="0 0 297 297" fill="none" xmlns="http://www.w3.org/2000/svg">
<path d="M26.0959 162.129C36.3163 191.205 31.9797 239.038 78.8784 244.293" stroke="#E7D69B" stroke-width="2" stroke-linecap="round"/>
<path d="M29.4547 172.453C6.84566 193.146 -13.6011 104.152 15.0595 125.564" stroke="#E7D69B" stroke-width="2" stroke-linecap="round"/>
<path d="M15.0598 125.564C-6.21003 66.2084 44.2318 7.572 109.588 11.9971C119.238 12.6505 127.384 13.7953 135.02 16.7291" stroke="#E7D69B" stroke-width="2" stroke-linecap="round"/>
<path d="M47.6887 122.123C47.6887 122.123 55.92 115.513 68.3128 114.692C82.1383 113.775 91.3542 121.262 91.3542 121.262C77.5775 126.085 63.9481 131.767 47.6887 122.123Z" stroke="#E7D69B" stroke-width="2" stroke-linecap="round"/>
<path d="M64.2017 115.188C59.2253 118.485 60.919 124.294 63.3875 127.122" stroke="#E7D69B" stroke-width="2" stroke-linecap="round"/>
<path d="M76.2391 115.24C78.6302 118.963 78.6316 123.387 75.0396 125.994" stroke="#E7D69B" stroke-width="2" stroke-linecap="round"/>
<path d="M47.209 107.066C65.0893 91.5863 79.4757 102.791 96.6326 106.636" stroke="#E7D69B" stroke-width="2" stroke-linecap="round"/>
<path d="M250.181 104.485C282.123 111.067 282.274 184.081 276.573 207.083C271.971 214.946 276.47 225.21 273.454 233.324C265.287 255.288 253.585 275.981 228.588 284.945C218.896 288.421 198.773 289.305 193.32 294.194" stroke="#E7D69B" stroke-width="2" stroke-linecap="round"/>
<path d="M279.452 186.219C283.872 184.249 284.923 176.952 292.887 181.917C300.427 186.619 287.732 211.073 287.369 216.762C287.081 221.286 276.366 225.7 274.174 227.301" stroke="#E7D69B" stroke-width="2" stroke-linecap="round"/>
<path d="M185.083 236.531C191.024 234.769 193.875 236.715 198.146 238.356" stroke="#E7D69B" stroke-width="2" stroke-linecap="round"/>
<path d="M198.146 238.356C210.881 231.016 216.102 237.428 226.307 243.527C225.205 243.865 225.267 245.021 224.272 245.2C214.075 247.028 212.393 242.007 202.217 246.569C196.756 243.841 191.348 244.745 185.422 245.504" stroke="#E7D69B" stroke-width="2" stroke-linecap="round"/>
<path d="M186.609 255.238C195.803 260.616 210.373 256.747 216.807 250.979" stroke="#E7D69B" stroke-width="2" stroke-linecap="round"/>
<path d="M191.359 218.584C194.84 222.921 202.619 223.785 204.422 218.128" stroke="#E7D69B" stroke-width="2" stroke-linecap="round"/>
<path d="M208.834 216.758C210.795 215.694 213.489 215.39 215.789 215.39" stroke="#E7D69B" stroke-width="2" stroke-linecap="round"/>
<path d="M226.307 167.025C232.896 159.465 259.612 166.613 258.031 170.067C257.104 174.321 237.371 176.272 231.818 175.49C228.174 174.977 224.563 172.079 221.896 170.371" stroke="#E7D69B" stroke-width="2" stroke-linecap="round"/>
<path d="M233.586 164.24C230.141 166.758 229.939 171.888 232.58 174.892" stroke="#E7D69B" stroke-width="2" stroke-linecap="round"/>
<path d="M244.523 164.848C248.988 168.137 246.918 173.217 244.113 174.945" stroke="#E7D69B" stroke-width="2" stroke-linecap="round"/>
<path d="M238.183 150.751C247.231 149.567 255.31 151.07 262.612 155.162" stroke="#E7D69B" stroke-width="2" stroke-linecap="round"/>
<path d="M135.02 16.729C139.851 43.2507 130.604 68.7203 123.5 93.8694C121.154 102.175 117.432 110.165 113.321 117.9C104.994 133.568 90.2493 146.449 84.1416 162.919C76.0952 184.616 67.0765 208.885 75.3198 231.055C77.3943 236.635 73.1825 241.524 78.8786 244.293" stroke="#E7D69B" stroke-width="2" stroke-linecap="round"/>
<path d="M250.182 104.485C244.434 141.471 229.032 166.256 201.539 190.903C193.834 197.811 189.879 213.331 185.252 221.626C178.248 235.259 184.247 303.441 193.32 294.194" stroke="#E7D69B" stroke-width="2" stroke-linecap="round"/>
<path d="M248.501 104.409C242.753 141.395 227.351 166.18 199.858 190.827C192.153 197.735 188.198 213.255 183.571 221.55C176.567 235.183 182.566 303.364 191.64 294.118" stroke="#E7D69B" stroke-width="2" stroke-linecap="round"/>
<path d="M132.387 19.173C112.9 30.9574 112.091 31.1821 115.113 50.1458C125.149 113.126 84.124 51.5615 64.2499 60.47C52.2962 65.8283 30.4653 95.6094 28.7417 117.254C26.9833 139.335 84.5501 164.78 55.4209 179.211C27.841 192.874 61.2411 231.507 50.8061 230.467" stroke="#E7D69B" stroke-width="2" stroke-linecap="round"/>
<path d="M266.743 248.888C239.456 199.983 265.783 184.563 265.783 177.478C265.783 170.872 265.951 134.386 254.267 139.623C245.629 143.495 241.683 151.442 231.983 155.789" stroke="#E7D69B" stroke-width="2" stroke-linecap="round"/>
<path d="M135.019 16.729C143.88 34.9602 132.526 68.756 125.439 93.7133C123.081 102.017 119.371 110.009 115.26 117.744C106.933 133.412 92.2966 146.326 86.0805 162.763C78.0483 184.002 68.3049 207.327 76.5481 229.498C78.6226 235.077 73.1818 241.524 78.8778 244.293" stroke="#E7D69B" stroke-width="2" stroke-linecap="round"/>
<path opacity="0.643392" d="M182.411 275.076C159.752 205.287 146.2 100.228 201.74 39.6121C203.468 37.7262 191.795 19.0232 171.041 11.5807C59.4365 -28.4407 215.372 53.9332 201.74 110.965C197.476 128.802 166.59 160.242 158.534 131.351C135.443 48.5484 249.195 96.2591 224.98 63.6961C216.005 51.6264 247.718 28.4912 232.839 31.159C220.045 33.453 204.846 66.9928 198.843 75.3097C167.853 118.247 163.84 126.74 132.383 167.028C118.919 184.271 122.58 207.636 110.78 226.148C103.273 237.926 79.1756 260.137 93.7249 263.863C210.67 293.818 69.8485 168.046 95.9989 144.602C122.293 121.03 208.152 203.439 231.302 161.931C258.306 113.513 160.035 123.286 134.657 117.081C124.315 114.552 121.013 96.2579 121.013 105.868C121.013 147.509 153.738 235.545 189.233 203.723" stroke="#E7D69B" stroke-width="2" stroke-linecap="round"/>
</svg>
