<svg width="69" height="29" viewBox="0 0 69 29" fill="none" xmlns="http://www.w3.org/2000/svg">
<path d="M8.14453 14.0254H2.8125L1.60156 18H0.439453L4.9707 3.78125H6.00586L10.5371 18H9.375L8.14453 14.0254ZM3.13477 12.9805H7.82227L5.47852 5.35352L3.13477 12.9805ZM13.7793 16.9648H19.6387V18H12.6562V3.78125H13.7793V16.9648ZM23.4082 3.78125L27.7148 16.291L32.041 3.78125H33.5156V18H32.4023V11.8379L32.5 5.63672L28.1445 18H27.2852L22.9492 5.69531L23.0469 11.7988V18H21.9336V3.78125H23.4082ZM45.7129 12.4336C45.7129 14.2695 45.3092 15.6888 44.502 16.6914C43.7012 17.694 42.5749 18.1953 41.123 18.1953C39.6842 18.1953 38.5547 17.694 37.7344 16.6914C36.9206 15.6888 36.5104 14.2793 36.5039 12.4629V9.36719C36.5039 7.53776 36.9108 6.11849 37.7246 5.10938C38.5384 4.09375 39.6647 3.58594 41.1035 3.58594C42.5618 3.58594 43.6947 4.09375 44.502 5.10938C45.3092 6.125 45.7129 7.55404 45.7129 9.39648V12.4336ZM44.5898 9.34766C44.5898 7.79167 44.2904 6.62305 43.6914 5.8418C43.0924 5.06055 42.2298 4.66992 41.1035 4.66992C40.0163 4.66992 39.1667 5.05404 38.5547 5.82227C37.9427 6.58398 37.6302 7.72656 37.6172 9.25V12.4336C37.6172 13.9961 37.9264 15.1712 38.5449 15.959C39.1634 16.7402 40.0228 17.1309 41.123 17.1309C42.2559 17.1309 43.1152 16.7402 43.7012 15.959C44.2936 15.1777 44.5898 14.0026 44.5898 12.4336V9.34766ZM55.3711 14.5039C55.3711 13.7096 55.1432 13.0846 54.6875 12.6289C54.2383 12.1732 53.3952 11.737 52.1582 11.3203C50.9212 10.9036 50.013 10.4382 49.4336 9.92383C48.6719 9.25326 48.291 8.36784 48.291 7.26758C48.291 6.18034 48.6654 5.29492 49.4141 4.61133C50.1628 3.92773 51.1296 3.58594 52.3145 3.58594C53.5254 3.58594 54.515 3.98307 55.2832 4.77734C56.0514 5.57161 56.4355 6.59375 56.4355 7.84375H55.3125C55.3125 6.88672 55.0423 6.11523 54.502 5.5293C53.9681 4.93685 53.2389 4.64062 52.3145 4.64062C51.416 4.64062 50.7064 4.88477 50.1855 5.37305C49.6712 5.85482 49.4141 6.47982 49.4141 7.24805C49.4141 7.96419 49.6582 8.55013 50.1465 9.00586C50.6348 9.46159 51.4128 9.86849 52.4805 10.2266C53.5482 10.5781 54.3555 10.946 54.9023 11.3301C55.4492 11.7077 55.8529 12.1536 56.1133 12.668C56.3737 13.1823 56.5039 13.7878 56.5039 14.4844C56.5039 15.5977 56.1263 16.4961 55.3711 17.1797C54.6224 17.8568 53.6296 18.1953 52.3926 18.1953C51.5592 18.1953 50.7975 18.026 50.1074 17.6875C49.4238 17.3424 48.8867 16.8509 48.4961 16.2129C48.112 15.5684 47.9199 14.8099 47.9199 13.9375H49.0332C49.0332 14.9401 49.3359 15.7279 49.9414 16.3008C50.5469 16.8737 51.3639 17.1602 52.3926 17.1602C53.291 17.1602 54.0104 16.9193 54.5508 16.4375C55.0977 15.9557 55.3711 15.3112 55.3711 14.5039ZM67.1777 4.83594H63.1348V18H62.0117V4.83594H57.9785V3.78125H67.1777V4.83594Z" fill="#E5E5E5"/>
<line y1="27" x2="68.0074" y2="27" stroke="#E5E5E5"/>
<circle cx="54" cy="27" r="2" fill="#E7D69B"/>
</svg>
